<?xml version="1.0" encoding="UTF-8" ?>
<!DOCTYPE svg PUBLIC "-//W3C//DTD SVG 1.1//EN" "http://www.w3.org/Graphics/SVG/1.1/DTD/svg11.dtd">
<svg width="512pt" height="512pt" viewBox="0 0 512 512" version="1.1" xmlns="http://www.w3.org/2000/svg">
<g id="#000000ff">
</g>
<g id="#f7d479ff">
<path fill="#f7d479" opacity="1.00" d=" M 254.79 105.75 C 276.80 77.97 309.13 58.53 344.06 52.40 C 348.60 51.97 353.24 54.87 354.76 59.18 C 356.19 62.78 355.31 66.99 352.87 69.93 C 335.69 91.70 326.10 119.30 325.94 147.03 C 325.71 170.70 332.31 194.40 344.86 214.48 C 317.75 209.78 288.60 219.11 269.58 239.06 C 260.18 218.19 243.63 200.51 222.87 190.69 L 222.54 190.09 C 224.16 159.53 235.61 129.59 254.79 105.75 Z" />
<path fill="#f7d479" opacity="1.00" d=" M 410.14 267.68 C 431.46 275.39 454.92 276.87 477.15 272.56 C 481.49 271.55 486.33 273.57 488.59 277.43 C 491.00 281.18 490.58 286.40 487.74 289.80 C 477.28 303.05 464.62 314.60 450.27 323.51 C 439.32 317.63 427.05 314.28 414.63 313.83 C 417.22 298.41 415.97 282.25 410.14 267.68 Z" />
</g>
<g id="#005b65ff">
<path fill="#005b65" opacity="1.00" d=" M 167.91 182.21 C 186.54 179.49 205.89 182.59 222.87 190.69 C 243.63 200.51 260.18 218.19 269.58 239.06 C 288.60 219.11 317.75 209.78 344.86 214.48 C 373.94 219.19 399.72 240.10 410.14 267.68 C 415.97 282.25 417.22 298.41 414.63 313.83 C 427.05 314.28 439.32 317.63 450.27 323.51 C 481.04 339.68 497.01 378.16 488.41 411.55 C 482.67 432.99 464.99 450.70 443.54 456.41 C 435.92 458.61 427.94 458.83 420.07 458.63 C 320.72 458.72 221.37 458.62 122.02 458.68 C 109.29 458.92 96.49 456.94 84.57 452.42 C 60.30 443.28 39.90 424.18 29.60 400.34 C 22.16 383.29 19.02 363.87 23.39 345.59 C 28.53 321.46 44.61 299.99 66.26 288.19 C 72.23 284.63 78.93 282.66 85.34 280.16 C 84.64 257.36 92.40 234.43 106.83 216.76 C 121.86 198.07 144.18 185.54 167.91 182.21 Z" />
</g>
</svg>
